<svg width="239" height="39" viewBox="0 0 239 39" fill="none" xmlns="http://www.w3.org/2000/svg">
<path fill-rule="evenodd" clip-rule="evenodd" d="M8.06925 4.45471H230.932C231.85 4.45471 232.714 4.81193 233.358 5.46333C234.001 6.10423 234.37 6.97626 234.37 7.87982V31.782C234.37 32.6961 234.001 33.5576 233.358 34.1985C232.714 34.8394 231.839 35.2071 230.932 35.2071H8.06925C7.15165 35.2071 6.28677 34.8499 5.64339 34.1985C5.00001 33.5576 4.63086 32.6856 4.63086 31.782V7.87982C4.63086 6.96576 5.00001 6.10423 5.64339 5.46333C6.28677 4.82244 7.15165 4.45471 8.06925 4.45471ZM199.839 33.5681H230.932C231.407 33.5681 231.86 33.379 232.208 33.0428C232.546 32.7066 232.736 32.2548 232.736 31.7715V7.87982C232.736 7.40703 232.546 6.95525 232.208 6.60854C231.871 6.27233 231.417 6.08321 230.932 6.08321H199.839C199.364 6.08321 198.911 6.27233 198.563 6.60854C198.225 6.94474 198.035 7.39652 198.035 7.87982V31.782C198.035 32.2548 198.225 32.7066 198.563 33.0533C198.9 33.3895 199.354 33.5786 199.839 33.5786V33.5681ZM196.917 6.08321H8.06925C7.59463 6.08321 7.1411 6.27233 6.79304 6.60854C6.45553 6.94474 6.26568 7.39652 6.26568 7.87982V31.782C6.26568 32.2548 6.45553 32.7066 6.79304 33.0533C7.13055 33.3895 7.58408 33.5786 8.06925 33.5786H196.917C196.58 33.0428 196.4 32.4229 196.4 31.782V7.87982C196.4 7.23893 196.58 6.61904 196.917 6.08321ZM97.9421 19.1638C97.0456 19.0692 95.8221 18.6069 95.685 17.5878C95.7272 17.136 96.128 16.7368 96.4761 16.5056C97.035 16.1274 97.7417 15.9278 98.4167 15.9278H113.974V14.3203H98.4167C97.8472 14.3203 97.2776 14.3938 96.7397 14.5724C96.244 14.73 95.7799 14.9507 95.358 15.2449C94.9678 15.5285 94.6408 15.8647 94.3982 16.285C94.1557 16.6947 94.0291 17.1465 94.0291 17.6193C94.0291 18.0921 94.1557 18.5334 94.3982 18.9431C94.6408 19.3529 94.9783 19.6996 95.3686 19.9728C95.7905 20.2669 96.2651 20.4876 96.7608 20.6347C97.246 20.7818 97.7312 20.8028 98.2269 20.8028H110.05C110.947 20.8973 112.17 21.3596 112.307 22.3787C112.265 22.8305 111.875 23.2193 111.516 23.4609C110.957 23.8391 110.24 24.0388 109.576 24.0388H94.0185V25.6463H109.576C110.145 25.6463 110.715 25.5727 111.253 25.3941C111.748 25.2365 112.213 25.0159 112.634 24.7217C113.025 24.438 113.352 24.1018 113.594 23.6815C113.837 23.2718 113.963 22.82 113.963 22.3472C113.963 21.8744 113.837 21.4332 113.594 21.0234C113.352 20.6137 113.014 20.2669 112.624 19.9938C112.202 19.6996 111.727 19.479 111.232 19.3319C110.746 19.1848 110.261 19.1638 109.766 19.1638H97.9421ZM67.0809 25.3311H80.4865C81.5095 25.3311 82.5326 25.1945 83.503 24.8898C84.3784 24.6166 85.2222 24.2279 85.971 23.692C86.6355 23.2193 87.205 22.6309 87.6269 21.9165C88.0277 21.244 88.2387 20.5086 88.2387 19.7206C88.2387 18.9326 88.0383 18.2182 87.6269 17.5458C87.205 16.8418 86.6249 16.264 85.9499 15.7912C85.2011 15.2659 84.3467 14.8771 83.4713 14.6145C82.6697 14.3728 81.8471 14.3203 81.0138 14.3203H65.4567V29.6807H67.0915V25.3311H67.0809ZM12.7733 25.3311H26.1788C27.2019 25.3311 28.225 25.1945 29.1953 24.8898C30.0708 24.6166 30.9145 24.2279 31.6634 23.692C32.3279 23.2193 32.8974 22.6309 33.3088 21.9165C33.7095 21.244 33.9205 20.5086 33.9205 19.7206C33.9205 18.9326 33.7201 18.2182 33.3088 17.5458C32.8869 16.8418 32.3068 16.264 31.6317 15.7912C30.8723 15.2659 30.0286 14.8771 29.1531 14.6145C28.3516 14.3728 27.5289 14.3203 26.6956 14.3203H11.1385V29.6807H12.7733V25.3311ZM46.0076 14.3518C45.4908 14.3833 44.974 14.4674 44.4677 14.6145C43.5923 14.8876 42.738 15.2659 41.9891 15.7912C41.3141 16.264 40.7445 16.8418 40.3121 17.5458C39.9113 18.2182 39.7004 18.9431 39.7004 19.7206C39.7004 20.4981 39.9113 21.2335 40.3121 21.9165C40.734 22.6204 41.293 23.2088 41.9575 23.692C42.7063 24.2279 43.5501 24.6166 44.4255 24.8898C45.4064 25.1945 46.4189 25.3311 47.442 25.3311H59.6452V23.7236H47.442C45.4486 23.7656 42.4321 22.8095 41.6094 20.7923H55.4368C55.9431 20.7923 56.4283 20.7713 56.9029 20.6242C57.3986 20.4771 57.8732 20.2564 58.2951 19.9623C58.6854 19.6891 59.0229 19.3424 59.2655 18.9326C59.508 18.5229 59.6346 18.0816 59.6346 17.6088C59.6346 17.136 59.508 16.6842 59.2655 16.2745C59.0229 15.8647 58.6959 15.518 58.3057 15.2343C57.8838 14.9297 57.4091 14.7195 56.924 14.5619C56.3755 14.3938 55.8165 14.3098 55.247 14.3098H45.9971V14.3413L46.0076 14.3518ZM126.061 14.3518C125.544 14.3833 125.027 14.4674 124.521 14.6145C123.646 14.8876 122.791 15.2659 122.043 15.7912C121.367 16.264 120.798 16.8418 120.366 17.5458C119.965 18.2182 119.764 18.9431 119.764 19.7206C119.764 20.4981 119.975 21.2335 120.376 21.9165C120.798 22.6204 121.357 23.2088 122.021 23.692C122.77 24.2279 123.614 24.6166 124.489 24.8898C125.47 25.1945 126.483 25.3311 127.506 25.3311H139.709V23.7236H127.506C125.513 23.7656 122.496 22.8095 121.673 20.7923H135.501C136.007 20.7923 136.492 20.7713 136.967 20.6242C137.463 20.4771 137.937 20.2564 138.359 19.9623C138.749 19.6891 139.087 19.3424 139.329 18.9326C139.572 18.5229 139.699 18.0816 139.699 17.6088C139.699 17.136 139.572 16.6842 139.329 16.2745C139.087 15.8647 138.76 15.518 138.37 15.2343C137.948 14.9297 137.473 14.7195 136.988 14.5619C136.439 14.3938 135.88 14.3098 135.311 14.3098H126.061V14.3413V14.3518ZM147.134 9.97061H145.5V21.1915C145.5 23.4714 147.366 25.3311 149.655 25.3311H165.444V23.7026H149.824C148.337 23.7026 147.124 22.4943 147.124 21.0129V9.9601L147.134 9.97061ZM172.88 9.97061H171.245V21.1915C171.245 23.4714 173.112 25.3311 175.401 25.3311H191.19V23.7026H175.57C174.082 23.7026 172.87 22.4943 172.87 21.0129V9.9601L172.88 9.97061ZM67.0809 23.7236H80.497C82.7647 23.7656 86.4667 22.5048 86.5195 19.7731V19.7416V19.6996V19.6576C86.4984 17.2831 83.4291 16.1379 81.4568 15.9698H67.1548C67.1548 15.9698 67.1126 15.9698 67.0915 15.9698V23.7236H67.0809ZM12.7733 23.7236H26.1894C28.457 23.7656 32.1591 22.5048 32.2118 19.7731V19.7416V19.6996V19.6576C32.1907 17.2831 29.1215 16.1379 27.1492 15.9698H12.8471C12.8471 15.9698 12.805 15.9698 12.7839 15.9698V23.7236H12.7733ZM55.7321 19.1638C56.6392 19.0692 57.8416 18.6069 57.9892 17.5878C57.9471 17.136 57.5568 16.7473 57.1982 16.5056C56.6392 16.1274 55.922 15.9278 55.247 15.9278H48.096L46.44 15.9488C44.7419 15.9488 41.9153 17.3146 41.4618 19.1743H55.7216L55.7321 19.1638ZM135.786 19.1638C136.682 19.0692 137.895 18.6069 138.043 17.5878C138 17.136 137.6 16.7473 137.252 16.5056C136.693 16.1274 135.986 15.9278 135.311 15.9278H128.16L126.504 15.9488C124.806 15.9488 121.979 17.3146 121.526 19.1743H135.786V19.1638Z" fill="white"/>
<path fill-rule="evenodd" clip-rule="evenodd" d="M230.932 6.08325H199.839C199.364 6.08325 198.911 6.27237 198.563 6.60858C198.225 6.94478 198.035 7.39656 198.035 7.87986V31.7821C198.035 32.2549 198.225 32.7066 198.563 33.0533C198.9 33.3896 199.354 33.5787 199.839 33.5787H230.932C231.407 33.5787 231.86 33.3896 232.208 33.0533C232.546 32.7171 232.736 32.2654 232.736 31.7821V7.87986C232.736 7.40707 232.546 6.95529 232.208 6.60858C231.871 6.27237 231.417 6.08325 230.932 6.08325ZM217.041 22.6309L225.795 13.9106H221.039C220.564 13.9106 220.174 13.5218 220.174 13.049C220.174 12.5762 220.564 12.1875 221.039 12.1875H227.884C228.358 12.1875 228.749 12.5762 228.749 13.049V19.8677C228.749 20.3405 228.358 20.7293 227.884 20.7293C227.409 20.7293 227.019 20.3405 227.019 19.8677V15.1293L217.653 24.4591C217.315 24.7953 216.767 24.7953 216.43 24.4591L211.335 19.3844L203.383 27.3063C203.045 27.6425 202.497 27.6425 202.159 27.3063C201.822 26.9701 201.822 26.4238 202.159 26.0876L210.713 17.5668C211.05 17.2306 211.599 17.2306 211.936 17.5668L217.031 22.6414L217.041 22.6309Z" fill="white"/>
</svg>
