<svg width="1080" height="132" viewBox="0 0 1080 132" fill="none" xmlns="http://www.w3.org/2000/svg">
<path fill-rule="evenodd" clip-rule="evenodd" d="M520.703 61.6422C515.325 61.0096 507.986 57.9169 507.163 51.099C507.417 48.0767 509.821 45.4057 511.909 43.8594C515.262 41.3291 519.501 39.9936 523.55 39.9936H616.872V29.2396H523.55C520.134 29.2396 516.717 29.7316 513.49 30.9265C510.517 31.9808 507.733 33.4569 505.202 35.4249C502.861 37.3227 500.9 39.5719 499.445 42.3834C497.99 45.1246 497.23 48.147 497.23 51.3099C497.23 54.4728 497.99 57.4249 499.445 60.1661C500.9 62.9073 502.924 65.2268 505.265 67.0543C507.796 69.0224 510.643 70.4984 513.617 71.4824C516.527 72.4665 519.438 72.607 522.411 72.607H593.336C598.714 73.2396 606.053 76.3323 606.875 83.1502C606.622 86.1725 604.281 88.7732 602.13 90.3898C598.777 92.9201 594.475 94.2556 590.489 94.2556H497.167V105.01H590.489C593.905 105.01 597.322 104.518 600.548 103.323C603.522 102.268 606.306 100.792 608.837 98.8243C611.178 96.9265 613.139 94.6773 614.594 91.8658C616.049 89.1246 616.808 86.1022 616.808 82.9393C616.808 79.7763 616.049 76.8243 614.594 74.0831C613.139 71.3419 611.114 69.0224 608.773 67.1949C606.243 65.2268 603.395 63.7508 600.422 62.7668C597.511 61.7827 594.601 61.6422 591.627 61.6422H520.703ZM335.578 102.901H415.993C422.13 102.901 428.267 101.987 434.088 99.9489C439.339 98.1214 444.401 95.5208 448.893 91.9361C452.879 88.7732 456.295 84.8371 458.826 80.0575C461.23 75.5591 462.496 70.639 462.496 65.3674C462.496 60.0958 461.294 55.3163 458.826 50.8179C456.295 46.1086 452.815 42.2428 448.766 39.0799C444.274 35.5655 439.149 32.9649 433.898 31.2077C429.09 29.5911 424.155 29.2396 419.156 29.2396H325.835V132H335.641V102.901H335.578ZM9.80667 102.901H90.2214C96.3585 102.901 102.496 101.987 108.316 99.9489C113.568 98.1214 118.629 95.5208 123.121 91.9361C127.107 88.7732 130.524 84.8371 132.991 80.0575C135.395 75.5591 136.661 70.639 136.661 65.3674C136.661 60.0958 135.459 55.3163 132.991 50.8179C130.46 46.1086 126.981 42.2428 122.931 39.0799C118.376 35.5655 113.315 32.9649 108.063 31.2077C103.255 29.5911 98.3199 29.2396 93.3216 29.2396H0V132H9.80667V102.901ZM209.167 29.3802C206.067 29.5911 202.967 30.1534 199.93 31.1374C194.678 32.9649 189.554 35.4952 185.062 39.0096C181.012 42.1725 177.596 46.0383 175.002 50.7476C172.598 55.246 171.332 60.0958 171.332 65.2971C171.332 70.4984 172.598 75.4185 175.002 79.9872C177.533 84.6965 180.886 88.6326 184.872 91.8658C189.364 95.4505 194.425 98.0511 199.677 99.8786C205.561 101.917 211.634 102.831 217.772 102.831H290.974V92.0767H217.772C205.814 92.3578 187.719 85.9617 182.784 72.4664H265.729C268.766 72.4664 271.677 72.3259 274.524 71.3419C277.497 70.3578 280.344 68.8818 282.875 66.9137C285.216 65.0863 287.241 62.7668 288.696 60.0256C290.151 57.2843 290.91 54.3323 290.91 51.1693C290.91 48.0064 290.151 44.984 288.696 42.2428C287.241 39.5016 285.279 37.1821 282.938 35.2843C280.408 33.246 277.561 31.8403 274.65 30.7859C271.36 29.6613 268.007 29.099 264.591 29.099H209.104V29.3099L209.167 29.3802ZM689.378 29.3802C686.278 29.5911 683.178 30.1534 680.141 31.1374C674.889 32.9649 669.765 35.4952 665.272 39.0096C661.223 42.1725 657.807 46.0383 655.213 50.7476C652.808 55.246 651.606 60.0958 651.606 65.2971C651.606 70.4984 652.872 75.4185 655.276 79.9872C657.807 84.6965 661.16 88.6326 665.146 91.8658C669.638 95.4505 674.699 98.0511 679.951 99.8786C685.835 101.917 691.909 102.831 698.046 102.831H771.248V92.0767H698.046C686.088 92.3578 667.993 85.9617 663.058 72.4664H746.004C749.04 72.4664 751.951 72.3259 754.798 71.3419C757.772 70.3578 760.619 68.8818 763.149 66.9137C765.49 65.0863 767.515 62.7668 768.97 60.0256C770.425 57.2843 771.185 54.3323 771.185 51.1693C771.185 48.0064 770.425 44.984 768.97 42.2428C767.515 39.5016 765.554 37.1821 763.213 35.2843C760.682 33.246 757.835 31.8403 754.924 30.7859C751.635 29.6613 748.281 29.099 744.865 29.099H689.378V29.3099V29.3802ZM815.789 0.0702891H805.982V75.1374C805.982 90.3898 817.181 102.831 830.91 102.831H925.624V91.9361H831.923C823.002 91.9361 815.726 83.853 815.726 73.9425V0L815.789 0.0702891ZM970.165 0.0702891H960.359V75.1374C960.359 90.3898 971.557 102.831 985.286 102.831H1080V91.9361H986.299C977.378 91.9361 970.102 83.853 970.102 73.9425V0L970.165 0.0702891ZM335.578 92.147H416.056C429.659 92.4281 451.866 83.9936 452.183 65.7188V65.508V65.2268V64.9457C452.056 49.0607 433.645 41.3994 421.814 40.2748H336.021C336.021 40.2748 335.768 40.2748 335.641 40.2748V92.147H335.578ZM9.80667 92.147H90.2847C103.888 92.4281 126.095 83.9936 126.411 65.7188V65.508V65.2268V64.9457C126.285 49.0607 107.873 41.3994 96.0422 40.2748H10.2496C10.2496 40.2748 9.99648 40.2748 9.86994 40.2748V92.147H9.80667ZM267.501 61.6422C272.942 61.0096 280.155 57.9169 281.04 51.099C280.787 48.0767 278.446 45.476 276.295 43.8594C272.942 41.3291 268.64 39.9936 264.591 39.9936H221.694L211.761 40.1342C201.575 40.1342 184.619 49.2716 181.898 61.7125H267.438L267.501 61.6422ZM747.712 61.6422C753.09 61.0096 760.366 57.9169 761.251 51.099C760.998 48.0767 758.594 45.476 756.506 43.8594C753.153 41.3291 748.914 39.9936 744.865 39.9936H701.968L692.035 40.1342C681.849 40.1342 664.893 49.2716 662.172 61.7125H747.712V61.6422Z" fill="white"/>
</svg>
